{
  "accessors": [
    {
      "bufferView": 0,
      "componentType": 5125,
      "count": 304392,
      "type": "SCALAR"
    },
    {
      "bufferView": 1,
      "componentType": 5126,
      "count": 54577,
      "max": [
        0.38115182518959,
        0.458009839057922,
        1.00174224376678
      ],
      "min": [
        -0.381776869297028,
        -0.460739105939865,
        -1.00278925895691
      ],
      "type": "VEC3"
    },
    {
      "bufferView": 2,
      "componentType": 5126,
      "count": 54577,
      "type": "VEC3"
    },
    {
      "bufferView": 3,
      "componentType": 5126,
      "count": 54577,
      "type": "VEC2"
    }
  ],
  "asset": {
    "generator": "Substance Painter 2019.1.1",
    "version": "2.0"
  },
  "bufferViews": [
    {
      "buffer": 0,
      "byteLength": 1217568,
      "target": 34963
    },
    {
      "buffer": 0,
      "byteLength": 654924,
      "byteOffset": 1217568,
      "target": 34962
    },
    {
      "buffer": 0,
      "byteLength": 654924,
      "byteOffset": 1872492,
      "target": 34962
    },
    {
      "buffer": 0,
      "byteLength": 436616,
      "byteOffset": 2527416,
      "target": 34962
    }
  ],
  "buffers": [
    {
      "byteLength": 2964032,
      "uri": "model.bin"
    }
  ],
  "images": [
    {
      "uri": "texture.png"
    },
    {
      "uri": "occlusion.png"
    },
    {
      "uri": "normal.png"
    }
  ],
  "materials": [
    {
      "alphaMode": "OPAQUE",
      "name": "03 - Default",
      "normalTexture": {
        "index": 2
      },
      "occlusionTexture": {
        "index": 1
      },
      "pbrMetallicRoughness": {
        "baseColorTexture": {
          "index": 0
        },
        "metallicRoughnessTexture": {
          "index": 1
        }
      }
    }
  ],
  "meshes": [
    {
      "name": "nick_pCube19",
      "primitives": [
        {
          "attributes": {
            "NORMAL": 2,
            "POSITION": 1,
            "TEXCOORD_0": 3
          },
          "indices": 0,
          "material": 0,
          "mode": 4
        }
      ]
    }
  ],
  "nodes": [
    {
      "children": [
        1
      ],
      "name": "root",
      "scale": [
        0.340995371341705,
        0.340995371341705,
        0.340995371341705
      ],
      "translation": [
        0.0,
        0.156236752867699,
        0.0
      ]
    },
    {
      "children": [
        2
      ],
      "name": "nick_pCube19"
    },
    {
      "mesh": 0,
      "name": "nick_pCube19"
    }
  ],
  "samplers": [
    {
      "magFilter": 9729,
      "minFilter": 9985,
      "wrapS": 10497,
      "wrapT": 10497
    }
  ],
  "scene": 0,
  "scenes": [
    {
      "name": "Scene",
      "nodes": [
        0
      ]
    }
  ],
  "textures": [
    {
      "sampler": 0,
      "source": 0
    },
    {
      "sampler": 0,
      "source": 1
    },
    {
      "sampler": 0,
      "source": 2
    }
  ]
}